<svg id="Ebene_1" data-name="Ebene 1" xmlns="http://www.w3.org/2000/svg" viewBox="0 0 245.3 121.1"><defs><style>.cls-1{fill:#a6c846;}.cls-2{fill:#9faea8;}.cls-3{fill:#2e3238;}.cls-4{fill:#fff;}</style></defs><path class="cls-1" d="M240.1,46l4.7-.6a24.7,24.7,0,0,0-11-6.5A29.7,29.7,0,0,1,240.1,46Z" transform="translate(-19 -38.7)"/><path class="cls-1" d="M248.3,45.1h4.9a31.1,31.1,0,0,0-12.8-6.5A33.7,33.7,0,0,1,248.3,45.1Z" transform="translate(-19 -38.7)"/><path class="cls-1" d="M246.9,47.7l-5.4.6a58.3,58.3,0,0,1,4.4,9.4c2.5-.3,4.7-.6,6.7-.7A36.2,36.2,0,0,0,246.9,47.7Z" transform="translate(-19 -38.7)"/><path class="cls-1" d="M236.8,46.6c-3.4-4.9-7.2-7.8-10.4-7.9l2.6,9.6A72.5,72.5,0,0,1,236.8,46.6Z" transform="translate(-19 -38.7)"/><path class="cls-1" d="M255.6,56.8h.8a21.2,21.2,0,0,1,5.6.6,29.6,29.6,0,0,0-5.1-8.5c-.4-.4-1.9-1.3-6.6-1.3A44,44,0,0,1,255.6,56.8Z" transform="translate(-19 -38.7)"/><path class="cls-1" d="M223.4,39.4c-2.8,1.7-4.6,6-5.2,12.1,2.5-.8,5.1-1.7,7.8-2.4Z" transform="translate(-19 -38.7)"/><path class="cls-1" d="M245.4,65.7c-.5-1.6-1-3.3-1.6-5-3.5.6-7.1,1.3-10.8,2.3l.3,1.2c5,1.7,7.9,5.2,9.2,10.7l4.6-1C246.7,71.2,246.1,68.5,245.4,65.7Z" transform="translate(-19 -38.7)"/><path class="cls-1" d="M238.3,48.8c-2.8.5-5.7,1.1-8.6,1.9l2.6,9.8c3.5-.9,7.2-1.6,10.6-2.3A58.7,58.7,0,0,0,238.3,48.8Z" transform="translate(-19 -38.7)"/><path class="cls-1" d="M210.1,57.6a44.3,44.3,0,0,0-.6,5.1h6a61.8,61.8,0,0,1-.4-7.3Z" transform="translate(-19 -38.7)"/><path class="cls-1" d="M259,74.5a35.4,35.4,0,0,1-4.4,17.2,31.6,31.6,0,0,0,9.1-16.9,6.4,6.4,0,0,0-2.7-.3Z" transform="translate(-19 -38.7)"/><path class="cls-1" d="M242.9,77.2a26.4,26.4,0,0,1,.4,5.1V98.1c3.6-3.2,5.2-11.5,4.1-21.9Z" transform="translate(-19 -38.7)"/><path class="cls-1" d="M255.5,72.5h.8a47.6,47.6,0,0,0-1.4-9.2l-1.2-3.8c-2.1.2-4.4.4-6.9.8a44.2,44.2,0,0,1,1.5,4.8,76.3,76.3,0,0,1,1.7,8.3Z" transform="translate(-19 -38.7)"/><path class="cls-1" d="M250.3,75.7c.9,7.6.3,14.3-1.5,19.1,4.6-4.6,7.3-11.8,7.5-20Z" transform="translate(-19 -38.7)"/><path class="cls-1" d="M223.1,62.7h1.4l4.8-1.4-2.7-9.9c-3,.8-5.8,1.8-8.5,2.7a61.9,61.9,0,0,0,.4,8.5Z" transform="translate(-19 -38.7)"/><path class="cls-1" d="M263.2,61c-.2-.8-2.1-1.6-6.7-1.6a28.1,28.1,0,0,1,1,3.1,40,40,0,0,1,1.5,9.7h1.9a13.9,13.9,0,0,1,3.2.3A31.3,31.3,0,0,0,263.2,61Z" transform="translate(-19 -38.7)"/><path class="cls-1" d="M206.8,62.7c.1-1.2.1-2.3.3-3.5a16.3,16.3,0,0,0-4.6,3.5Z" transform="translate(-19 -38.7)"/><path class="cls-1" d="M215.2,52.7a30.7,30.7,0,0,1,1.8-9.3,25.5,25.5,0,0,0-6.2,11.1Z" transform="translate(-19 -38.7)"/><path class="cls-1" d="M207.6,56a31.8,31.8,0,0,1,3.6-9.5,31.2,31.2,0,0,0-7.8,12.1,29.4,29.4,0,0,1,4.1-2.5Z" transform="translate(-19 -38.7)"/><rect class="cls-2" y="95.8" width="218.3" height="25.36" rx="5.1"/><path class="cls-3" d="M102.1,81.6v31a2.6,2.6,0,0,0,2.6,2.6h38a2.6,2.6,0,0,0,2.6-2.6v-6.9h13.4v6.7A13.6,13.6,0,0,1,145.1,126H102.9a14.3,14.3,0,0,1-14.2-14.2V82.3a13.6,13.6,0,0,1,13.6-13.6h42.2a14.3,14.3,0,0,1,14.2,14.2v4.8H145.3V81.6a2.6,2.6,0,0,0-2.6-2.7h-38A2.6,2.6,0,0,0,102.1,81.6Z" transform="translate(-19 -38.7)"/><path class="cls-3" d="M180.9,68.7h42.2c10.7,0,14.2,2.8,14.2,13.6v30.1c0,10.8-3.5,13.6-14.2,13.6H180.9c-10.8,0-14.2-2.8-14.2-13.6V82.3C166.7,71.5,170.1,68.7,180.9,68.7ZM224,112.6v-31a2.7,2.7,0,0,0-2.7-2.7H182.6a2.7,2.7,0,0,0-2.6,2.7v31a2.6,2.6,0,0,0,2.6,2.6h38.7A2.7,2.7,0,0,0,224,112.6Z" transform="translate(-19 -38.7)"/><path class="cls-3" d="M32.3,112.6V101H75V91.2H32.3V81.6a2.7,2.7,0,0,1,2.6-2.7H80.6V68.7H33.2A14.2,14.2,0,0,0,19,82.9v29.5A13.5,13.5,0,0,0,32.5,126H81.2V115.2H34.9A2.6,2.6,0,0,1,32.3,112.6Z" transform="translate(-19 -38.7)"/><path class="cls-4" d="M35.2,140H47.5c2.2,0,3.2.7,3.2,2.7v3.2c0,2-1,2.8-3.2,2.8h-9v5.6H35.2Zm3.3,2.4v3.8H46c1,0,1.5-.2,1.5-1.1v-1.5c0-1-.5-1.2-1.5-1.2Z" transform="translate(-19 -38.7)"/><path class="cls-4" d="M59.2,140h3.3v11.6H73.2v2.7h-14Z" transform="translate(-19 -38.7)"/><path class="cls-4" d="M88.4,140h3.2l8.2,14.3H96l-1.7-3.2H85.2l-1.6,3.2H80.3Zm4.5,8.6-3-5.9-3.2,5.9Z" transform="translate(-19 -38.7)"/><path class="cls-4" d="M113,154.3h-3.3V142.5h-6.6V140h16.5v2.5H113Z" transform="translate(-19 -38.7)"/><path class="cls-4" d="M127.5,140H142v2.4H130.9v3.8h6v2.6h-6v5.5h-3.4Z" transform="translate(-19 -38.7)"/><path class="cls-4" d="M153.4,140h10.5c2.7,0,3.6.6,3.6,3.3v7.6c0,2.7-.9,3.4-3.6,3.4H153.4c-2.7,0-3.6-.7-3.6-3.4v-7.6C149.8,140.6,150.7,140,153.4,140Zm10.8,11.6v-9.1h-11v9.1Z" transform="translate(-19 -38.7)"/><path class="cls-4" d="M176.9,140h12.3c2.2,0,3.2.7,3.2,2.7v3.4c0,2-1,2.8-3.2,2.8h-1.9l6.6,5.4h-4.8l-5.7-5.4h-3.2v5.4h-3.3Zm3.3,2.4v4h7.5c1,0,1.5-.2,1.5-1.1v-1.7c0-1-.5-1.2-1.5-1.2Z" transform="translate(-19 -38.7)"/><path class="cls-4" d="M202.4,140h2.7l6.8,8.6,6.6-8.6h2.6v14.3H218v-8.9c0-.3.1-.8.2-1.5a6.6,6.6,0,0,1-.9,1.5l-5.4,7.1h-.6l-5.4-7.1-.9-1.5a8.1,8.1,0,0,1,.1,1.5v8.9h-2.7Z" transform="translate(-19 -38.7)"/></svg>